<svg xmlns="http://www.w3.org/2000/svg">

<!-- ============================= -->
<!--          Instagram            -->
<!-- ============================= -->
    <symbol id="instagram" viewBox="0 0 16 16">
        <path d="M8 0C5.829 0 5.556.01 4.703.048 3.85.088 3.269.222 2.76.42a3.9 3.9 0 0 0-1.417.923A3.9 3.9 0 0 0 .42 2.76C.222 3.268.087 3.85.048 4.7.01 5.555 0 5.827 0 8.001c0 2.172.01 2.444.048 3.297.04.852.174 1.433.372 1.942.205.526.478.972.923 1.417.444.445.89.719 1.416.923.51.198 1.09.333 1.942.372C5.555 15.99 5.827 16 8 16s2.444-.01 3.298-.048c.851-.04 1.434-.174 1.943-.372a3.9 3.9 0 0 0 1.416-.923c.445-.445.718-.891.923-1.417.197-.509.332-1.09.372-1.942C15.99 10.445 16 10.173 16 8s-.01-2.445-.048-3.299c-.04-.851-.175-1.433-.372-1.941a3.9 3.9 0 0 0-.923-1.417A3.9 3.9 0 0 0 13.24.42c-.51-.198-1.092-.333-1.943-.372C10.443.01 10.172 0 7.998 0zm-.717 1.442h.718c2.136 0 2.389.007 3.232.046.78.035 1.204.166 1.486.275.373.145.64.319.92.599s.453.546.598.92c.11.281.24.705.275 1.485.039.843.047 1.096.047 3.231s-.008 2.389-.047 3.232c-.035.78-.166 1.203-.275 1.485a2.5 2.5 0 0 1-.599.919c-.28.28-.546.453-.92.598-.28.11-.704.24-1.485.276-.843.038-1.096.047-3.232.047s-2.39-.009-3.233-.047c-.78-.036-1.203-.166-1.485-.276a2.5 2.5 0 0 1-.92-.598 2.5 2.5 0 0 1-.6-.92c-.109-.281-.24-.705-.275-1.485-.038-.843-.046-1.096-.046-3.233s.008-2.388.046-3.231c.036-.78.166-1.204.276-1.486.145-.373.319-.64.599-.92s.546-.453.92-.598c.282-.11.705-.24 1.485-.276.738-.034 1.024-.044 2.515-.045zm4.988 1.328a.96.96 0 1 0 0 1.92.96.96 0 0 0 0-1.92m-4.27 1.122a4.109 4.109 0 1 0 0 8.217 4.109 4.109 0 0 0 0-8.217m0 1.441a2.667 2.667 0 1 1 0 5.334 2.667 2.667 0 0 1 0-5.334" fill="currentcolor"/>
    </symbol>

<!-- ============================= -->
<!--             Mail              -->
<!-- ============================= -->
    <symbol id="mail" viewBox="0 0 16 16">
        <path d="M0 4a2 2 0 0 1 2-2h12a2 2 0 0 1 2 2v8a2 2 0 0 1-2 2H2a2 2 0 0 1-2-2zm2-1a1 1 0 0 0-1 1v.217l7 4.2 7-4.2V4a1 1 0 0 0-1-1zm13 2.383-4.708 2.825L15 11.105zm-.034 6.876-5.64-3.471L8 9.583l-1.326-.795-5.64 3.47A1 1 0 0 0 2 13h12a1 1 0 0 0 .966-.741M1 11.105l4.708-2.897L1 5.383z" fill="currentcolor"/>
    </symbol>

<!-- ============================= -->
<!--          ArtStation           -->
<!-- ============================= -->
    <symbol id="artStation" viewbox="0 0 32 32">
        <path d="M0 23.63l2.703 4.672c0.552 1.094 1.667 1.781 2.885 1.781h17.943l-3.724-6.453zM32 23.661c0-0.641-0.193-1.245-0.516-1.75l-10.516-18.276c-0.557-1.057-1.656-1.719-2.854-1.719h-5.557l16.24 28.135 2.563-4.432c0.5-0.849 0.641-1.224 0.641-1.958zM17.161 19.047l-7.255-12.568-7.26 12.568z" fill="currentcolor"/>
    </symbol>

<!-- ============================= -->
<!--            Tumblr pue sa mère voilà leur logo de con introuvable en svg de bonne qualité             -->
<!-- ============================= -->
    <symbol id="tumblr" viewbox="0 0 24 24">
        <path d="M14.078 20.953c-2.692 0-4.699-1.385-4.699-4.7v-5.308H6.931V8.07c2.694-.699 3.821-3.017 3.95-5.023h2.796v4.558h3.263v3.34h-3.263v4.622c0 1.386.699 1.864 1.813 1.864h1.58v3.522z" fill="currentcolor"/>
    </symbol>

</svg>